<svg viewBox="0 0 325 40" xmlns="http://www.w3.org/2000/svg" data-di-rand="1745231933564"><title>Eversource</title><g fill-rule="nonzero" fill="none"><path d="M173.14.335c-7.708 0-14.118 4-17.361 10.04h34.703c-3.237-6.04-9.627-10.04-17.342-10.04z" fill="#2CAAE2"></path><path d="M173.14 39.445c7.592 0 13.905-3.994 17.187-10.032h-34.393c3.289 6.045 9.614 10.032 17.206 10.032z" fill="#007749"></path><path d="M192.143 14.639h-38.024a20.116 20.116 0 0 0-.627 5c0 1.923.259 3.768.73 5.51h37.818c.472-1.742.73-3.587.73-5.51a20.463 20.463 0 0 0-.626-5z" fill="#07B14C"></path><g fill="#000"><path d="M.51.974h22.873v6.284H7.812v9.348h14.292v6.278H7.812v9.639H24.21v6.283H.51zM26.297.974h7.921l8.025 24.123c.718 2.207 1.441 5.645 1.441 5.645h.11s.717-3.432 1.441-5.645L53.363.974h7.786L47.496 38.806h-7.495L26.297.974zM64.761.974h22.873v6.284H72.062v9.348h14.725v6.278H72.062v9.639h16.399v6.283h-23.7zM101.4 7.258v11.368h5.815c3.547 0 5.757-2.129 5.757-5.755 0-2.329-.756-4.013-2.54-4.896-.936-.465-2.144-.717-4.419-.717H101.4zM94.092.974h12.4c3.921 0 5.679.297 7.23.878 4.076 1.542 6.693 5.38 6.693 10.619 0 4.419-2.293 8.651-6.235 10.277v.11s.478.586 1.28 2l7.708 13.947h-8.187l-7.359-13.897h-6.21v13.897h-7.307V.973h-.013zM129.02 28.723s4.161 3.994 9.356 3.994c2.72 0 5.253-1.355 5.253-4.284 0-6.336-17.704-5.381-17.704-17.013 0-6.446 5.492-11.077 12.826-11.077 7.598 0 11.462 4.045 11.462 4.045l-3.173 5.987s-3.657-3.303-8.348-3.303c-2.959 0-5.44 1.677-5.44 4.232 0 6.284 17.704 4.82 17.704 16.935 0 6.071-4.665 11.206-12.69 11.206-8.477 0-13.2-5.194-13.2-5.194l3.954-5.529zM196.58.974h7.308v24.174c0 4.871 3.172 7.613 8.05 7.613 4.905 0 8.11-2.742 8.11-7.664V.974h7.3v24.174c0 8.464-6.157 14.297-15.358 14.297-9.252 0-15.41-5.833-15.41-14.297V.974zM240.33 7.258v11.368h5.815c3.547 0 5.757-2.129 5.757-5.755 0-2.329-.756-4.013-2.54-4.896-.936-.465-2.144-.717-4.419-.717h-4.613zM233.029.974h12.399c3.922 0 5.68.297 7.23.878 4.077 1.542 6.694 5.38 6.694 10.619 0 4.419-2.294 8.651-6.242 10.277v.11s.478.586 1.28 2l7.708 13.947h-8.187l-7.36-13.897h-6.215v13.897h-7.301V.973h-.006zM282.47.335c9.252 0 14.001 5.168 14.001 5.168l-3.463 5.484s-4.323-3.993-10.215-3.993c-7.863 0-12.347 5.883-12.347 12.619 0 6.838 4.665 13.155 12.373 13.155 6.429 0 10.88-4.794 10.88-4.794l3.813 5.297s-5.279 6.174-14.984 6.174c-11.63 0-19.623-8.548-19.623-19.703C262.898 8.748 271.265.336 282.47.336zM301.23.974h22.88v6.284h-15.58v9.348h14.29v6.278h-14.29v9.639h16.4v6.283h-23.7z"></path></g></g></svg>