<svg fill="none" height="96" width="266" xmlns="http://www.w3.org/2000/svg"><radialGradient id="a" cx="0" cy="0" gradientTransform="matrix(24.151 0 0 24.1521 228.25 44.156)" gradientUnits="userSpaceOnUse" r="1"><stop offset=".35" stop-color="#c6e08a"/><stop offset=".72" stop-color="#91c31e"/><stop offset=".89" stop-color="#8fc21f"/><stop offset=".95" stop-color="#88c022"/><stop offset="1" stop-color="#7cbc28"/></radialGradient><radialGradient id="b" cx="0" cy="0" gradientTransform="matrix(33.7944 0 0 33.7959 31.97 52.38)" gradientUnits="userSpaceOnUse" r="1"><stop offset="0" stop-color="#33a9e1"/><stop offset="1" stop-color="#004578"/></radialGradient><radialGradient id="c" cx="0" cy="0" gradientTransform="matrix(48.3935 0 0 48.3957 41.947 21.265)" gradientUnits="userSpaceOnUse" r="1"><stop offset="0" stop-color="#7cbc28"/><stop offset="1" stop-color="#00743b"/></radialGradient><path d="M121.708 20.252h8.539v34.253h-8.539zm13.789 15.815h14.508v6.944h-14.508zm38.671 8.147l-6.453-23.962h-12.52v34.253h8.349l-.68-27.571 7.571 27.571h7.427l7.617-27.571-.687 27.571h8.251V20.252H180.53zm47.335 10.305h9.153l-4.936-13.403a44.37 44.37 0 00-7.002 4.328zm-11.532-14.796l3.426-11.324 2.654 8.5a30.99 30.99 0 017.081-2.55l-5.126-14.123h-8.918l-10.232 27.552a47.08 47.08 0 0111.115-8.055zm46.531-.243c-4.394-1.418-8.101-1.758-14.482-1.47-2.451.11-5.492.438-7.93.719v15.79h15.913c3.302 0 6.597-.249 9.415-2.132a8.905 8.905 0 004.073-7.42 4.47 4.47 0 00-.981-3.106 49.86 49.86 0 00-6.008-2.38zm-2.615 7.278c-1.112 1.163-2.616 1.516-5.682 1.516h-5.962v-8.303h7.44a7.191 7.191 0 012.765.34c.974.334 2.38 1.308 2.38 3.831a3.7 3.7 0 01-.941 2.642zM234.09 32.079V20.251h14.063c.928 0 1.85 0 2.726.046 3.544.144 7.329.589 9.657 3.688a7.926 7.926 0 011.654 5.04c0 4.466-2.864 6.454-4.91 7.095a29.99 29.99 0 00-6.362-2.772c1.622-.406 2.315-.988 2.576-1.687.2-.513.3-1.059.295-1.609a3.078 3.078 0 00-2.23-3.158 5.735 5.735 0 00-1.961-.242h-7.355v5.486a67.431 67.431 0 00-8.153-.059z" fill="#26618c"/><path d="M195.698 54.519h9.807s11.049-14.319 25.903-17.366c12.252-2.523 23.537-.582 29.421 2.616-7.27-6.12-20.921-6.872-30.179-5.14a61.182 61.182 0 00-34.952 19.89z" fill="url(#a)"/><path d="M122.037 75.604V60.266h6.78c1.883 0 3.112.255 3.688.778.575.523.876 1.608.876 3.269s-.654 2.779-1.962 3.23c1.622.385 2.439 1.588 2.439 3.602 0 1.635-.32 2.772-.961 3.433-.641.66-1.752.987-3.341.987zM123.763 67h4.577c1.445 0 2.373-.17 2.792-.51.418-.34.621-1.118.621-2.308 0-1.027-.183-1.7-.543-2-.359-.301-1.17-.471-2.425-.471h-5.022zm0 7.14h5.218c1.307 0 2.183-.164 2.615-.504.431-.34.615-1.059.615-2.157 0-1.367-.203-2.21-.615-2.524s-1.537-.47-3.354-.47h-4.479zm16.161-13.874v15.338h-1.733V60.266zm10.88-.158c2.896 0 4.714.419 5.44 1.275.725.857 1.085 2.962 1.085 6.342 0 3.655-.347 5.885-1.046 6.754-.7.87-2.517 1.275-5.479 1.275s-4.773-.418-5.479-1.268c-.706-.85-1.059-3.027-1.059-6.538v-2.53c0-2.04.451-3.427 1.373-4.178s2.654-1.132 5.165-1.132zm0 1.458c-2.426 0-3.845.282-4.257.811-.411.53-.653 2.387-.653 5.558s.209 5.014.653 5.55c.445.537 1.831.818 4.257.818 2.425 0 3.857-.275 4.269-.817.412-.543.654-2.387.654-5.551v-2.452c0-1.691-.285-2.764-.856-3.217-.641-.47-1.949-.7-4.08-.7zm10.866 14.038V60.266h7.028c1.744 0 2.923.335 3.538 1.007.653.653.941 1.909.941 3.733s-.327 2.955-.981 3.59c-.653.634-1.883.96-3.694.96h-5.119v6.048zm1.713-7.5h4.106c1.713 0 2.811-.182 3.269-.529s.726-1.164.726-2.432c0-1.49-.164-2.432-.491-2.818-.327-.386-1.098-.582-2.321-.582h-5.289zm26.565-7.838v15.338h-1.719v-7.113h-8.958v7.113h-1.739V60.266h1.739v6.767h8.958v-6.767zm15.114 12.082h-7.761l-1.183 3.269h-1.831l5.623-15.339h2.426l5.727 15.339h-1.804zm-.503-1.308l-3.4-9.33-3.361 9.37zm7.858 4.564V60.266h7.303c1.648 0 2.809.324 3.485.974.676.65 1.011 1.783 1.007 3.4a5.795 5.795 0 01-.543 2.962 2.94 2.94 0 01-2.105 1.078v.04c1.626.108 2.439 1.096 2.439 2.961v3.923h-1.733v-3.53c0-1.783-.774-2.677-2.321-2.681h-5.793v6.211zm1.739-7.67h4.989c1.307 0 2.223-.208 2.7-.607.477-.399.719-1.157.719-2.262 0-1.386-.176-2.282-.536-2.714-.359-.431-1.111-.614-2.282-.614h-5.59zm31.226-7.668v15.338h-1.74V61.495h-.045l-.138.36c-.065.182-.111.294-.124.346l-.301.72-5.23 12.683h-1.726l-5.231-12.54-.301-.713-.137-.36a3.805 3.805 0 01-.137-.346h-.039v13.959H228.5V60.266h3.001l4.132 9.944.654 1.609.327.797.314.798h.045l.321-.798c.15-.379.255-.654.307-.797l.654-1.583 4.073-9.944zm15.107 12.082h-7.761l-1.177 3.269h-1.83l5.616-15.339h2.426l5.727 15.339h-1.811zm-.503-1.308l-3.4-9.33-3.361 9.37z" fill="#26618c"/><path clip-rule="evenodd" d="M26.328 54.179A48.382 48.382 0 0111.29 19.893a47.416 47.416 0 0018.025 71.135 48.705 48.705 0 01-2.961-36.85z" fill="url(#b)" fill-rule="evenodd"/><path clip-rule="evenodd" d="M38.639 8.908A25.32 25.32 0 0027.06 6.24a47.73 47.73 0 00-15.795 13.626 48.387 48.387 0 0015.037 34.286 48.67 48.67 0 0118.96-25.283 49.748 49.748 0 00-13.076 0c.778-9.154 3.393-15.548 6.427-19.994zM59.75 67.543a48.34 48.34 0 01-33.423-13.364 48.705 48.705 0 002.962 36.849A47.182 47.182 0 0049.393 95.5h1.308c4.955-2.615 14.017-9.886 15.586-28.37a48.862 48.862 0 01-6.538.413z" fill="#33a9e1" fill-rule="evenodd"/><path clip-rule="evenodd" d="M72.159 41.822a48.323 48.323 0 0115.037 34.28A47.443 47.443 0 0069.17 4.965a48.718 48.718 0 012.962 36.856z" fill="#7cbc27" fill-rule="evenodd"/><path clip-rule="evenodd" d="M59.847 87.105A25.34 25.34 0 0071.42 89.72a47.638 47.638 0 0015.802-13.626 48.326 48.326 0 00-15.037-34.28 48.65 48.65 0 01-18.96 25.284 49.03 49.03 0 0013.075 0c-.797 9.153-3.419 15.534-6.453 20.007z" fill="#91c31d" fill-rule="evenodd"/><path clip-rule="evenodd" d="M38.73 28.464A48.314 48.314 0 0172.16 41.82a48.718 48.718 0 00-2.962-36.855A47.175 47.175 0 0049.093.5h-1.307c-4.956 2.615-14.011 9.892-15.587 28.376a48.833 48.833 0 016.532-.412z" fill="url(#c)" fill-rule="evenodd"/></svg>