<?xml version="1.0" encoding="UTF-8"?>
<svg xmlns="http://www.w3.org/2000/svg" id="Layer_2" data-name="Layer 2" viewBox="0 0 140.05 62.52">
  <defs>
    <style>
      .cls-1 {
        fill: #c00;
      }

      .cls-1, .cls-2 {
        stroke-width: 0px;
      }

      .cls-2 {
        fill: #fff;
      }
    </style>
  </defs>
  <g id="Layer_2-2" data-name="Layer 2">
    <g>
      <rect class="cls-1" width="140.05" height="62.52"></rect>
      <path class="cls-2" d="M17.81,43.23c.74,0,1.35-.6,1.35-1.35v-10.45l22.15,11.59c.2.1.41.15.62.15.49,0,.95-.26,1.19-.72.34-.66.09-1.47-.57-1.82l-21.36-11.18,21.39-10.85c.66-.34.93-1.14.59-1.81-.34-.66-1.15-.93-1.81-.59l-22.22,11.26v-10.11c0-.74-.6-1.35-1.35-1.35s-1.35.6-1.35,1.35v24.51c0,.74.6,1.35,1.35,1.35"></path>
      <path class="cls-2" d="M46.98,13.58c-.74,0-1.35.6-1.35,1.35v30.32H15.12c-.74,0-1.35.6-1.35,1.35s.6,1.35,1.35,1.35h33.21V14.92c0-.74-.6-1.35-1.35-1.35"></path>
      <path class="cls-2" d="M84.28,13.58c-.74,0-1.35.6-1.35,1.35v30.32h-30.52c-.74,0-1.35.6-1.35,1.35s.6,1.35,1.35,1.35h33.21V14.92c0-.74-.6-1.35-1.35-1.35"></path>
      <path class="cls-2" d="M121.57,13.58c-.74,0-1.35.6-1.35,1.35v30.32h-30.51c-.74,0-1.35.6-1.35,1.35s.6,1.35,1.35,1.35h33.21V14.92c0-.74-.6-1.35-1.35-1.35"></path>
      <path class="cls-2" d="M65.9,42.45c.23.46.7.72,1.19.72.11,0,.21-.01.32-.04.41-.1.74-.39.91-.76l12.18-24c.34-.66.07-1.47-.59-1.81-.66-.34-1.47-.07-1.81.59l-11.01,21.7-11.05-21.71c-.34-.66-1.15-.93-1.81-.59-.66.34-.93,1.15-.59,1.81l12.25,24.08Z"></path>
      <path class="cls-2" d="M92.3,43.23c.74,0,1.35-.6,1.35-1.35v-10.81h21.19v10.81c0,.74.6,1.35,1.35,1.35s1.35-.6,1.35-1.35v-24.51c0-.74-.6-1.35-1.35-1.35s-1.35.6-1.35,1.35v11.01h-21.19v-11.01c0-.74-.6-1.35-1.35-1.35s-1.35.6-1.35,1.35v24.51c0,.74.6,1.35,1.35,1.35"></path>
      <path class="cls-2" d="M124.83,15.27c0-.83.62-1.45,1.42-1.45s1.41.62,1.41,1.45-.62,1.46-1.41,1.46-1.42-.62-1.42-1.46M126.26,17.01c.95,0,1.76-.74,1.76-1.75s-.81-1.74-1.76-1.74-1.77.74-1.77,1.74.81,1.75,1.77,1.75M125.89,15.4h.35l.53.87h.34l-.57-.89c.3-.04.52-.19.52-.55,0-.4-.24-.57-.71-.57h-.77v2.01h.3v-.87ZM125.89,15.15v-.62h.42c.21,0,.44.05.44.29,0,.31-.23.33-.49.33h-.36Z"></path>
    </g>
  </g>
</svg>
