<svg width="185" height="43" viewBox="0 0 185 43" fill="none" xmlns="http://www.w3.org/2000/svg">
<g clip-path="url(#clip0_4123_13486)">
<g clip-path="url(#clip1_4123_13486)">
<path d="M1.88381 7.89526C0.841312 7.89526 0 8.74162 0 9.79036V40.7559C0 41.8046 0.841312 42.651 1.88381 42.651H32.6649C33.7074 42.651 34.5487 41.8046 34.5487 40.7559V35.1718L7.37063 7.89526H1.88381Z" fill="#F14468"/>
<path d="M40.0634 0.416016H9.23661C8.20326 0.416016 7.37109 1.25317 7.37109 2.29271V7.89521L34.5583 35.1717H40.0634C41.0968 35.1717 41.9289 34.3346 41.9289 33.295V2.29271C41.9289 1.25317 41.0968 0.416016 40.0634 0.416016Z" fill="#FDB604"/>
<path d="M68.44 22.651C68.44 27.0392 66.6751 29.477 62.6423 29.477C58.6095 29.477 56.744 27.0392 56.744 22.651V9.56013C56.744 8.64018 56.0032 7.89502 55.0888 7.89502H49.0898V23.2306C49.0898 31.5469 53.9548 35.6315 62.5326 35.6315C71.1103 35.6315 76.0759 31.7033 76.0759 23.1202V7.89502H68.4309V22.6418L68.44 22.651Z" fill="white"/>
<path d="M127.367 35.1807H135.149V21.7679V7.89502H127.367V21.7679V35.1807Z" fill="white"/>
<path d="M168.474 21.538C171.318 19.0082 174.482 14.344 176.22 7.89519H168.648C167.441 12.3293 165.182 15.8895 162.274 17.6283C159.759 16.0919 157.363 13.1205 156.083 9.21071C155.827 8.42876 155.105 7.88599 154.282 7.88599H147.643C149.362 14.4912 152.562 18.2446 155.525 20.9769C152.37 23.9299 149.188 28.4377 147.643 35.1625H155.15C156.193 30.9583 158.817 26.5334 161.725 24.8775C164.295 26.2666 166.874 30.0936 168.108 33.8378C168.364 34.6197 169.087 35.1625 169.91 35.1625H176.485C175.132 29.2472 171.94 24.7487 168.465 21.5196L168.474 21.538Z" fill="white"/>
<path d="M108.236 25.8433C110.084 25.0246 114.162 22.6143 114.162 17.2878C114.162 10.6549 110.093 7.9043 102.905 7.9043H89.8281V35.1808H97.3725V25.5397C100.719 26.9841 104.24 30.3327 106.142 34.0217C106.508 34.73 107.23 35.1808 108.026 35.1808H115.196C113.705 31.6758 111.263 28.2076 108.236 25.8433ZM102.439 21.4736H97.3725V13.6264H102.503C104.99 13.6264 106.645 14.8959 106.645 17.435C106.645 19.974 105.091 21.4736 102.439 21.4736Z" fill="white"/>
<path d="M27.1968 21.6488L10.1236 8.48428C9.62983 8.1071 9.02628 7.89551 8.40444 7.89551H7.37109V35.172H14.7692V21.2808L31.76 34.5741C32.2538 34.9604 32.8665 35.172 33.4975 35.172H34.5583V7.89551H27.1968V21.6488Z" fill="white"/>
<path d="M179.758 8.1894H180.334V9.80852H180.663V8.1894H181.239V7.89502H179.758V8.1894Z" fill="white"/>
<path d="M183.141 7.89502L182.556 9.30254L181.971 7.89502H181.568V9.80852H181.898V8.51139L182.474 9.80852H182.647L183.214 8.51139V9.80852H183.544V7.89502H183.141Z" fill="white"/>
</g>
</g>
<defs>
<clipPath id="clip0_4123_13486">
<rect width="185" height="42.6811" fill="white"/>
</clipPath>
<clipPath id="clip1_4123_13486">
<rect width="183.543" height="42.2441" fill="white" transform="translate(0 0.416016)"/>
</clipPath>
</defs>
</svg>
