<?xml version="1.0" encoding="utf-8"?>
<!-- Generator: Adobe Illustrator 26.4.1, SVG Export Plug-In . SVG Version: 6.00 Build 0)  -->
<svg version="1.1" id="Layer_1" xmlns="http://www.w3.org/2000/svg" xmlns:xlink="http://www.w3.org/1999/xlink" x="0px" y="0px"
	 viewBox="0 0 944 161" style="enable-background:new 0 0 944 161;" xml:space="preserve">
<style type="text/css">
	.st0{stroke:#FFFFFF;stroke-width:7.1111;}
	.st1{fill:#9D9D9C;stroke:#FFFFFF;stroke-width:7.1111;}
	.st2{fill:#CE132D;stroke:#FFFFFF;stroke-width:7.1111;}
	.st3{fill-rule:evenodd;clip-rule:evenodd;fill:#FFFFFF;}
</style>
<g>
	<path class="st0" d="M92.79,23.14L73.88,85.39c-3.69,12.15-3.72,20.41,8.51,20.41c12.24,0,17.23-8.26,20.92-20.41l18.91-62.25
		h43.32l-24.29,79.96c-5.33,17.55-28.08,34.75-68.59,34.75c-40.51,0-52.81-17.2-47.48-34.75l24.29-79.96H92.79z"/>
	<path class="st0" d="M167.28,23.14h43.32l-25.21,83h49.1l-8.97,29.52H133.1L167.28,23.14z"/>
	<path class="st0" d="M227.28,23.14h111.44l-8.97,29.52h-34.06l-25.21,83h-43.32l25.21-83h-34.06L227.28,23.14z"/>
	<path class="st0" d="M494.69,81.01h12.76l-1.31-27.83h-0.33l-55.32,82.49h-34.75h-12.37h-32.76l0.19-63.77
		c2.05,0.34,4.42,0.67,6.9,0.67c7.61,0,17.91-2.36,20.03-10.97c1.91-7.93-2.82-9.78-10.09-9.78h-14.39l-25.47,83.85h-41.17
		L340.8,23.14h69.12c26.78,0,36.63,13.33,30.06,34.92c-3.69,12.15-13.58,22.94-28.92,29.35c0.55,11.58,1.51,23.24,2.9,34.86
		c25.74-32.55,51.3-66.2,75.84-99.13h51.42c3.67,37.45,7.95,75.07,13.27,112.52h-45.3l-1.7-25.98h-32.06L494.69,81.01z"/>
	<path class="st1" d="M589.68,23.14h37.31l-25.22,83h49.11l-8.97,29.52H555.5L589.68,23.14z"/>
	<path class="st1" d="M642.52,135.67l21.56-70.97c17.95,0.09,29.59,0.08,34.89,0.03l-21.55,70.94H642.52z"/>
	<path class="st2" d="M711.61,23.14l-9.18,30.23c-4.27-0.05-15.9-0.06-34.91,0.03l9.19-30.26H711.61z"/>
	<path class="st1" d="M776.57,64.65l-8.97,29.52h-41.76l-12.61,41.5h-34.9l34.18-112.52h85.59l-8.97,29.52h-51.35l-3.64,11.98
		H776.57z"/>
	<path class="st1" d="M850.73,135.67H764l34.18-112.52h86.73l-8.97,29.52h-53.03l-3.64,11.98h43.27l-8.97,29.52h-43.27l-3.64,11.98
		h53.03L850.73,135.67z"/>
	<path class="st3" d="M906.07,37.09h2.03l3.39,5.61h2.43l-3.67-5.76c1.96-0.22,3.42-1.2,3.42-3.58c0-2.66-1.61-3.77-4.78-3.77h-4.97
		V42.7h2.15V37.09z M906.07,35.26v-3.83h2.6c1.3,0,2.85,0.19,2.85,1.77c0,1.9-1.43,2.06-3.04,2.06H906.07z M920,35.92
		c0-7.12-5.39-11.84-11.59-11.84c-6.27,0-11.65,4.72-11.65,11.84c0,6.74,4.84,11.84,11.65,11.84C914.61,47.76,920,43.05,920,35.92z
		 M917.47,35.92c0,5.79-3.99,9.78-9.06,9.78c-5.63,0-9.11-4.4-9.11-9.78c0-5.76,3.99-9.78,9.11-9.78
		C913.48,26.14,917.47,30.16,917.47,35.92z"/>
</g>
</svg>
